<svg xmlns="http://www.w3.org/2000/svg" aria-hidden="true" style="position:absolute;width:0;height:0;overflow:hidden">
  <defs>
    <symbol id="Frame-60" viewBox="0 0 32 32">
      <path d="M24.24 6c-1.36-.08-4.16-.16-8.4-.16h-.56c-4.08 0-6.8.08-8.16.24-1.84.16-3.12.64-3.84 1.28-.64.56-1.12 1.6-1.28 2.96-.08.88-.16 2.72-.16 5.52v.4c0 2.64.08 4.48.24 5.36.24 1.28.64 2.24 1.44 2.8.8.64 2.16 1.04 4.08 1.2 1.36.08 4.16.16 8.4.16h.56c4.08 0 6.8-.08 8.16-.24 1.84-.16 3.12-.64 3.84-1.28.64-.56 1.12-1.6 1.28-2.96.08-.88.16-2.72.16-5.52v-.4c0-2.64-.08-4.48-.24-5.36-.24-1.28-.64-2.24-1.44-2.8-.8-.64-2.16-1.04-4.08-1.2zm-3.12 9.84-8.8 5.28V10.56l8.8 5.28z" />
    </symbol>
    <symbol id="Vector" viewBox="0 0 18 32">
      <path d="M14.45 5.602h2.924V.655a40.727 40.727 0 0 0-4.262-.218c-4.231 0-7.124 2.582-7.124 7.311v4.076H1.212v5.538h4.776v14.187h5.724V17.362h4.76l.716-5.538h-5.476V8.293c0-1.633.436-2.691 2.738-2.691z"/>
    </symbol>
    <symbol id="u_facebook-f" viewBox="0 0 32 32">

  <path fill="url(#a)" d="M24.99 13.893a1.12 1.12 0 1 0 0 2.24 1.12 1.12 0 0 0 0-2.24Zm4.293 2.26a7.08 7.08 0 0 0-.43-2.269 4.61 4.61 0 0 0-1.083-1.652 4.386 4.386 0 0 0-1.651-1.073 6.813 6.813 0 0 0-2.268-.439c-.99-.056-1.307-.056-3.846-.056-2.538 0-2.856 0-3.845.056a6.813 6.813 0 0 0-2.268.439 4.461 4.461 0 0 0-1.652 1.073 4.386 4.386 0 0 0-1.074 1.652 6.813 6.813 0 0 0-.438 2.268c-.056.99-.056 1.307-.056 3.845 0 2.54 0 2.856.056 3.846.016.775.164 1.542.438 2.268.228.625.595 1.19 1.074 1.652a4.461 4.461 0 0 0 1.652 1.073 6.813 6.813 0 0 0 2.268.439c.99.056 1.306.056 3.845.056s2.856 0 3.846-.056a6.813 6.813 0 0 0 2.268-.439 4.386 4.386 0 0 0 1.651-1.073 4.526 4.526 0 0 0 1.083-1.652 7.08 7.08 0 0 0 .43-2.268c0-.99.055-1.307.055-3.846 0-2.538 0-2.856-.056-3.845Zm-1.68 7.578a5.237 5.237 0 0 1-.318 1.736 2.857 2.857 0 0 1-.7 1.073 2.979 2.979 0 0 1-1.073.7 5.238 5.238 0 0 1-1.736.317c-.933.047-1.279.056-3.733.056-2.455 0-2.8 0-3.734-.056a5.349 5.349 0 0 1-1.81-.28 3.052 3.052 0 0 1-1.027-.7 2.8 2.8 0 0 1-.69-1.073 5.171 5.171 0 0 1-.374-1.773c0-.934-.056-1.279-.056-3.734 0-2.454 0-2.8.056-3.733a5.172 5.172 0 0 1 .327-1.773c.164-.394.416-.745.737-1.027a2.93 2.93 0 0 1 1.027-.747 5.348 5.348 0 0 1 1.773-.317c.933 0 1.279-.056 3.733-.056 2.455 0 2.8 0 3.733.056.593.007 1.18.114 1.736.317.425.158.805.414 1.111.747.306.287.545.637.7 1.027.208.568.315 1.168.317 1.773.047.933.056 1.279.056 3.733 0 2.455-.009 2.8-.056 3.734Zm-7.598-8.522a4.787 4.787 0 1 0 4.797 4.788 4.777 4.777 0 0 0-4.797-4.788Zm0 7.896a3.108 3.108 0 1 1 0-6.216 3.108 3.108 0 0 1 0 6.216Z"/>
  <rect width="39" height="39" x=".5" y=".5" stroke="url(#b)" rx="5.5"/>
  <defs>
    <linearGradient id="a" x1="18.621" x2="28.154" y1="10.664" y2="11.025" gradientUnits="userSpaceOnUse">
      <stop stop-color="#BEC7C2"/>
      <stop offset="1" stop-color="#A1B5BA"/>
    </linearGradient>
    <linearGradient id="b" x1="17.033" x2="37.462" y1="0" y2=".773" gradientUnits="userSpaceOnUse">
      <stop stop-color="#BEC7C2"/>
      <stop offset="1" stop-color="#A1B5BA"/>
    </linearGradient>
  </defs>
</symbol>
  </defs>
</svg>